<?xml version='1.0' encoding='utf-8'?>
<svg xmlns="http://www.w3.org/2000/svg" xmlns:xlink="http://www.w3.org/1999/xlink" viewBox="0 0 575.27 722.15">
 <defs>
  <filter id="e">
   <feGaussianBlur stdDeviation="7.45574"/>
  </filter>
  <linearGradient id="f" x1="-.15978" x2=".84522" y1="1.2693" y2=".11234">
   <stop stop-color="#fc0" offset="0"/>
   <stop stop-color="#fd5" offset="1"/>
  </linearGradient>
 </defs>
 <g transform="matrix(.78458 0 0 .78458 2.1005 209.9)">
  <rect x="60.43" y="-244.61" width="628.48" height="862.67" filter="url(#e)" opacity=".522" stroke-linecap="round" stroke-linejoin="round"/>
  <path id="b" d="m116.74-165.69h524.28m-524.28 36h524.28" fill="#59f" fill-rule="evenodd" stroke="#59f" stroke-width="2"/>
  <rect x="50.43" y="-254.61" width="628.48" height="862.67" fill="#fff" stroke="#999" stroke-linecap="round" stroke-linejoin="round"/>
  <use width="744.09448" height="1052.3622" xlink:href="#b"/>
  <use y="72" width="744.09448" height="1052.3622" xlink:href="#b"/>
  <use y="144" width="744.09448" height="1052.3622" xlink:href="#b"/>
  <use y="216" width="744.09448" height="1052.3622" xlink:href="#b"/>
  <use y="288" width="744.09448" height="1052.3622" xlink:href="#b"/>
  <use y="360" width="744.09448" height="1052.3622" xlink:href="#b"/>
  <use y="432" width="744.09448" height="1052.3622" xlink:href="#b"/>
  <use y="504" width="744.09448" height="1052.3622" xlink:href="#b"/>
  <use y="576" width="744.09448" height="1052.3622" xlink:href="#b"/>
  <use y="648" width="744.09448" height="1052.3622" xlink:href="#b"/>
  <g fill="#d40000" fill-rule="evenodd" stroke="#d40000">
   <path d="m165.5-221.68v799.28"/>
   <path d="m617.12-221.68v799.28"/>
  </g>
  <g stroke-linecap="round" stroke-linejoin="round" stroke-width="2">
   <rect transform="rotate(6.7196)" x="38.605" y="-260.8" width="404.61" height="395.11" fill="url(#f)" opacity=".939" stroke="#d4aa00"/>
   <g fill="#acf" stroke="#3771c8">
    <path d="m51.46-206.61v3.9375l56.469 13.125c5.14 1.1862 8.3384 3.1097 10 5.0312s1.9392 3.7531 1.3438 5.5312c-1.1852 3.5394-6.7787 7.1495-15.688 5.8438l-52.125-11.375v3.9062l51.312 11.219c0.03952 0.009659 0.084984 0.024002 0.125 0.03125 10.262 1.5529 18.084-2.4057 20.094-8.4062 1.0046-3.0003 0.31242-6.4363-2.0938-9.2188s-6.3936-4.997-12.094-6.3125l-57.344-13.312z"/>
    <path d="m49.856-181.14v-3.9062l-19.094-4.1875c-0.68465-0.1593-1.4008 0.055893-1.875 0.5625-0.47424 0.50661-0.62312 1.2472-0.40625 1.9062 0.21688 0.65901 0.78059 1.1378 1.4688 1.2812l19.906 4.3438zm-11.562-37.969c-0.68655-0.15588-1.4037 0.083054-1.875 0.59375-0.47132 0.5107-0.62921 1.2168-0.40625 1.875 0.22295 0.65823 0.77813 1.1445 1.4688 1.2812 12.464 2.6484 75.252 17.293 107.03 24.156 7.5673 1.6343 11.567 8.5987 13.312 11.75 1.7454 3.1513 1.4579 6.7822-0.40625 10.375-3.7283 7.1857-13.875 15.35-23.906 13.219l-106.25-24.562c-13.655-2.9013-17.915-11.088-16.438-17.625 1.4776-6.5369 8.9103-12.158 22.094-9.0938l16.938 3.9375v-3.9375l-16.094-3.75c-14.617-3.3976-24.762 3.1748-26.75 11.969-1.9878 8.794 4.3833 19.051 19.438 22.25l106.25 24.562c12.026 2.5553 23.606-6.3892 28.188-15.219 2.2906-4.4148 2.797-9.5082 0.34375-13.938-2.4532-4.4294-7.644-11.903-15.906-13.688-31.539-6.8115-93.928-21.372-107.03-24.156z"/>
   </g>
  </g>
  <path d="m122.47 20.42c-2.5326 2.3066-6.8642 3.114-12.995 2.4223-1.0113-0.11404-2.4298-0.30609-4.2555-0.57614-1.8222-0.30154-3.0968-0.49334-3.8236-0.5754-4.6139-0.52051-8.3002-0.18434-11.059 1.0085l-2.1019 18.629c9.2152-1.9686 16.446-2.657 21.692-2.0652 4.993 0.56337 9.6558 2.2096 13.988 4.9387l-0.2621 2.3227c-11.711-0.87323-24.708 1.0047-38.992 5.6338-0.79704 1.9584-1.5748 5.023-2.3335 9.1939-0.69852 3.9217-1.4707 6.7949-2.3167 8.6197-1.3536 2.9197-3.4839 5.2076-6.3911 6.8638l-4.2565-3.1206c8.5089-20.386 13.819-39.934 15.93-58.642 0.19608-1.738 0.91263-2.8413 2.1497-3.3099 2.4394 0.78737 6.3751 1.5035 11.807 2.1482 6.3167 0.74478 10.63 1.3754 12.94 1.8921 4.6164 1.065 8.0432 2.6037 10.28 4.6163m55.923 34.921c-0.1819 1.6117-1.1224 3.2818-2.8216 5.0103-9.472 4.244-19.122 5.8115-28.95 4.7026-1.8013-0.20321-3.6393-0.50662-5.514-0.91016-1.7401 0.95583-2.7206 2.4134-2.9416 4.3727-0.22821 2.0225 0.4098 3.7427 1.9141 5.1605 1.3253 1.3017 3.0308 2.0702 5.1165 2.3055 2.9389 0.33162 7.713-0.42591 14.322-2.2726 6.6091-1.8466 11.257-2.6184 13.943-2.3153 1.5484 0.17471 2.7715 0.68074 3.6692 1.5181-11.811 8.2366-22.124 11.858-30.941 10.863-4.9615-0.55978-8.7183-2.1518-11.271-4.776-2.7521-2.8388-3.8554-6.6757-3.3098-11.511 0.082001-0.72683 0.23305-1.7819 0.45312-3.1652 0.22365-1.4149 0.3765-2.4858 0.4585-3.2127 0.24959-2.2121 0.12076-3.9068-0.38648-5.0842 2.8344-0.16022 6.2928-1.7383 10.375-4.7341 4.3602-3.1885 7.5714-4.9864 9.6336-5.3939 3.4042-0.67198 7.1446-0.77805 11.221-0.31812 3.3181 0.3744 6.4633 1.2893 9.4355 2.7448 4.0318 1.9911 5.8962 4.3297 5.5932 7.0159m-6.8733-0.7755c-2.2066-1.4331-4.732-2.3101-7.5761-2.631-2.623-0.29588-5.3837-0.079319-8.2823 0.64975-3.2605 0.81629-5.6754 2.08-7.2446 3.7912-0.84096 0.92928-1.2935 1.6783-1.3577 2.2471-0.12126 1.0745 0.78197 1.7204 2.7097 1.9379 2.9389 0.33162 6.7045-0.13961 11.297-1.4137 4.5922-1.2741 8.0769-2.8011 10.454-4.5812m1.9722-44.711c-0.75122 1.8356-1.5006 3.6552-2.2481 5.4591-0.91635 1.8809-2.178 3.4188-3.7849 4.6136l-7.3622 4.834c-2.7288 2.0604-4.2465 4.4495-4.5531 7.1672-0.14621 1.2957-0.041626 2.7797 0.3138 4.452-0.23908 0.1331-1.0339 0.79551-2.3845 1.9872-1.0342 0.93951-1.8988 1.37-2.594 1.2915-0.60045-0.067715-1.2126-0.45682-1.8365-1.1673-0.96152-2.5407-1.3175-4.9172-1.0678-7.1293 0.22102-1.9592 0.67304-3.4124 1.356-4.3595 1.1757-1.6275 4.7658-5.223 10.77-10.786 3.6089-3.3372 8.0726-5.4579 13.391-6.3621m46.25 54.28c-2.0897 2.0685-4.1299 2.9905-6.1208 2.7658-0.7269-0.081985-1.3569-0.3131-1.89-0.69329-0.61229-1.3812-1.5724-2.6577-2.8803-3.8294-1.4273-1.2491-2.8362-1.9522-4.2266-2.1091-4.3294-0.48844-8.459 3.3502-12.389 11.516-3.1683 6.5234-5.0662 12.566-5.6937 18.128-0.62897 0.18504-1.1962 0.24908-1.7019 0.19203-2.5913-0.29237-3.9593-2.3509-4.1038-6.1757 0.12009-2.4828 0.26839-6.0664 0.44492-10.751 0.0047-4.864 0.13899-8.4653 0.40285-10.804 0.45282-4.0134 1.3754-7.5097 2.7676-10.489 3.3478 1.5299 4.954 2.8952 4.8185 4.0961-0.049911 0.44244-0.18622 1.0832-0.40888 1.9221-0.22269 0.83903-0.35899 1.4797-0.40889 1.9221-0.11769 1.0429 0.10385 1.916 0.6646 2.6193 4.9198-3.8934 7.5871-5.9768 8.002-6.25 3.4525-2.2347 6.6008-3.1917 9.445-2.8708 2.7493 0.31023 5.3038 1.6386 7.6634 3.985 0.1998 0.21461 2.0713 2.49 5.6146 6.8262m29.057-12.035c-0.98518 1.073-2.0308 1.5471-3.1368 1.4223-1.0429-0.11763-1.9408-0.81099-2.6936-2.0801-0.58314 0.062271-1.9118 0.77645-3.9862 2.1426-1.9409 1.3172-3.3221 1.9295-4.1437 1.8368-1.7381-0.19607-2.3914-2.206-1.96-6.0298 0.40643-3.6025 2.4693-5.434 6.1886-5.4945 2.0704 0.93771 4.1549 1.893 6.2535 2.8658 2.2524 1.3103 3.4118 3.0893 3.4783 5.337m-17.199 12.029c-0.39339 2.0679-1.7086 5.2159-3.9459 9.444-2.114 3.986-3.3011 7.1325-3.5613 9.4394-0.24959 2.2121 0.77907 3.4483 3.086 3.7086 1.738 0.1961 4.246-0.049019 7.5239-0.73532 2.5331-0.61028 5.0645-1.2048 7.5941-1.7835 0.51483 0.82618 0.72057 1.6975 0.6172 2.6139-0.12483 1.106-0.76086 2.3464-1.908 3.7212-6.713 3.0511-12.424 4.3109-17.132 3.7797-4.8666-0.54909-7.0076-3.415-6.4228-8.5976 0.38864-3.4446 1.9166-7.7687 4.584-12.972 3.2769-6.3511 5.2384-10.546 5.8845-12.586 1 0.49691 2.227 1.8195 3.6808 3.9677m53.315-4.93c-0.39224 3.4762-1.9895 8.2726-4.7919 14.389-2.8941 6.3623-4.6038 11.162-5.129 14.399 0.68259 1.3252 1.6926 2.1592 3.0301 2.5021 1.9343 0.44228 3.1382 0.83414 3.6118 1.1756 0.444 1.1703 0.60718 2.2768 0.48959 3.3196-0.24609 2.1805-2.6017 4.7631-7.0669 7.7477-6.1806-0.2493-9.6344-0.41493-10.361-0.49693-4.2662-0.48135-7.8691-1.736-10.809-3.7638-3.6165-2.5523-5.2019-5.8035-4.7562-9.7537 0.33872-3.0021 2.0284-5.3558 5.0692-7.061 2.7349-1.5476 5.6667-2.145 8.7953-1.792 2.2752 0.25671 4.3233 0.96786 6.144 2.1334 3.6358-4.7104 6.1464-10.652 7.5317-17.824-2.55 0.1924-6.677 1.455-12.381 3.7878-5.1942 2.0703-9.382 3.022-12.564 2.855-1.9247-1.9453-2.7302-4.3085-2.4165-7.0895 0.07843-0.69518 0.24988-1.3639 0.51439-2.0062 2.3542-0.72648 7.8002-2.1923 16.338-4.3974 9.2615-2.3794 14.24-3.5299 14.935-3.4515 2.9073 0.32805 4.1791 2.1038 3.8155 5.327m-15.082 34.111c-1.1086-0.66917-1.9592-2.3493-2.5516-5.0405-1.2315-0.715-2.6215-1.1599-4.17-1.3346-3.5394-0.39934-5.4027 0.79859-5.5901 3.5938l-0.0382 0.7638c1.3631 1.818 3.514 2.8928 6.453 3.2244 2.4333 0.27454 4.3989-0.12777 5.8968-1.2069m63.699-21.232c0.013214 0.4496-0.003296 0.87978-0.049622 1.2906-0.32092 2.8442-1.9034 4.1058-4.7476 3.7849-1.2957-0.14616-3.1719-0.6779-5.6287-1.5952-2.4217-0.94528-4.2645-1.4892-5.5286-1.6319-1.6117-0.18181-3.182 0.12109-4.7111 0.90867-1.7329 0.89264-2.6849 2.0974-2.8561 3.6142-0.17471 1.5485 1.3336 3.6389 4.5251 6.2712l8.9748 7.2534c3.1522 2.98 4.5963 5.6392 4.3326 7.9777-0.23181 2.0541-1.2019 3.5608-2.9103 4.5202-1.5046 0.85434-3.2997 1.1639-5.3854 0.92856-2.4334-0.27454-6.014-1.1586-10.742-2.6522-4.7281-1.4936-8.3246-2.3794-10.79-2.6575-1.6749-0.18896-3.2394-0.22148-4.6936-0.097511-0.69473-0.36642-1.4795-1.4951-2.3543-3.386-1.0496-2.3267-1.6988-3.6641-1.9476-4.0122 1.7809-0.18312 3.7774-0.1499 5.9895 0.099686 3.5394 0.39934 8.1328 1.5257 13.78 3.379 5.6476 1.8534 8.8822 2.8264 9.7039 2.9191 1.1692 0.13192 1.7877-0.10233 1.8555-0.70274 0.16754-1.4853-1.3709-3.4511-4.6153-5.8974-5.7839-4.333-8.8214-6.6279-9.1124-6.8848-3.1874-2.9519-4.6278-5.7867-4.3211-8.5045 0.44211-3.9186 2.8232-7.0103 7.1432-9.2752 3.8455-2.0304 7.8224-2.8139 11.931-2.3504 5.1826 0.58477 9.2351 2.8182 12.158 6.7003" fill="#3771c8"/>
  <path id="a" d="m71.162 335.31c-1.9878 8.794 4.3978 19.058 19.452 22.257l106.24 22.574c12.026 2.5553 23.61-4.3918 28.191-13.221 2.2906-4.4148 2.797-9.5154 0.34372-13.945-2.4533-4.4294-7.6571-7.8946-15.919-9.679-31.539-6.8116-93.918-23.372-107.02-26.156-0.68655-0.15588-1.4026 0.063538-1.8739 0.57422-0.47132 0.51068-0.62491 1.2335-0.40195 1.8917 0.22295 0.6582 0.78792 1.1498 1.4785 1.2866 12.464 2.6484 75.243 19.293 107.02 26.156 7.5673 1.6343 11.56 4.5936 13.306 7.7449 1.7454 3.1513 1.4555 6.7686-0.40863 10.361-3.7283 7.1857-13.886 13.365-23.918 11.234l-106.24-22.574c-13.655-2.9014-17.921-11.097-16.443-17.634 1.4776-6.5369 8.9075-12.159 22.091-9.0942l73.422 17.071c5.14 1.1862 8.3378 3.1139 9.9994 5.0354 1.6616 1.9216 1.9319 3.7453 1.3365 5.5234-1.1852 3.5394-6.7701 7.1511-15.679 5.8453l-71.22-15.546c-0.68465-0.1593-1.4008 0.055298-1.8751 0.56189-0.47424 0.50659-0.63329 1.2269-0.41642 1.8859 0.21688 0.65906 0.77619 1.1549 1.4644 1.2983l71.235 15.549c0.03952 0.009705 0.079346 0.018127 0.11935 0.025391 10.262 1.5529 18.076-2.3861 20.085-8.3867 1.0047-3.0003 0.31549-6.4554-2.0907-9.2379s-6.3866-4.9754-12.087-6.291l-73.422-17.071c-14.617-3.3976-24.781 3.1669-26.769 11.961z" fill="#acf" stroke="#3771c8" stroke-linecap="round" stroke-linejoin="round" stroke-width="2"/>
  <use transform="matrix(.47481 .88009 -.88009 .47481 905.37 137.55)" width="744.09448" height="1052.3622" fill="#7900ff" stroke="#7900ff" xlink:href="#a"/>
  <use transform="matrix(.039353 -.99922 .99922 .039353 -95.388 464.88)" width="744.09448" height="1052.3622" fill="#ff00f6" stroke="#ff00f6" xlink:href="#a"/>
  <use transform="matrix(.8973 .44143 -.44143 .8973 590.83 184.94)" width="744.09448" height="1052.3622" fill="#ff0034" stroke="#ff0034" xlink:href="#a"/>
  <use transform="matrix(.68177 -.73157 .73157 .68177 -424.83 497.26)" width="744.09448" height="1052.3622" fill="#a600ff" stroke="#a600ff" xlink:href="#a"/>
  <use transform="matrix(.7453 .66673 -.66673 .7453 552.76 261.09)" width="744.09448" height="1052.3622" fill="#dc00ff" stroke="#dc00ff" xlink:href="#a"/>
  <use transform="matrix(.20478 -.97881 .97881 .20478 -339.92 718.22)" width="744.09448" height="1052.3622" fill="#9c02fd" stroke="#9c02fd" xlink:href="#a"/>
  <use transform="matrix(.25307 .96745 -.96745 .25307 881.03 409.33)" width="744.09448" height="1052.3622" fill="#0027ff" stroke="#0027ff" xlink:href="#a"/>
  <use transform="matrix(.27175 .96237 -.96237 .27175 914.1 435.65)" width="744.09448" height="1052.3622" fill="#ffe200" stroke="#ffe200" xlink:href="#a"/>
  <use transform="matrix(.99776 .066961 -.066961 .99776 225.2 153.74)" width="744.09448" height="1052.3622" fill="#5dff00" stroke="#5dff00" xlink:href="#a"/>
  <use transform="matrix(.81417 .58062 -.58062 .81417 624.37 204.81)" width="744.09448" height="1052.3622" fill="#ffc100" stroke="#ffc100" xlink:href="#a"/>
  <use transform="matrix(.9733 -.22955 .22955 .9733 132.45 56.546)" width="744.09448" height="1052.3622" fill="#7fdf20" stroke="#7fdf20" xlink:href="#a"/>
  <use transform="matrix(.99992 -.012595 .012595 .99992 258.84 63.506)" width="744.09448" height="1052.3622" fill="#b204fb" stroke="#b204fb" xlink:href="#a"/>
  <use transform="matrix(.58038 -.81434 .81434 .58038 -237.72 527.53)" width="744.09448" height="1052.3622" fill="#ff0004" stroke="#ff0004" xlink:href="#a"/>
  <use transform="matrix(.93645 .35079 -.35079 .93645 508.19 119.72)" width="744.09448" height="1052.3622" fill="#b200ff" stroke="#b200ff" xlink:href="#a"/>
  <use transform="matrix(.63751 .77044 -.77044 .63751 864.73 301.41)" width="744.09448" height="1052.3622" fill="#04ff00" stroke="#04ff00" xlink:href="#a"/>
  <use transform="matrix(.37276 -.92793 .92793 .37276 -174.01 509.22)" x="0.000061" y="-0.000015" width="744.09448" height="1052.3622" fill="#4c00ff" stroke="#4c00ff" xlink:href="#a"/>
  <use transform="matrix(.99006 -.14062 .14062 .99006 244.8 97.718)" width="744.09448" height="1052.3622" fill="#6f00ff" stroke="#6f00ff" xlink:href="#a"/>
  <use transform="matrix(.96563 -.25993 .25993 .96563 210.61 193.85)" width="744.09448" height="1052.3622" fill="#ff002b" stroke="#ff002b" xlink:href="#a"/>
  <use transform="matrix(.020246 .9998 -.9998 .020246 1158.4 645.97)" x="0.000031" y="-0.000044" width="744.09448" height="1052.3622" fill="#ffdb00" stroke="#ffdb00" xlink:href="#a"/>
  <use transform="matrix(.57172 .82045 -.82045 .57172 989.52 363.28)" width="744.09448" height="1052.3622" fill="#2aff00" stroke="#2aff00" xlink:href="#a"/>
  <use transform="matrix(.96807 .25068 -.25068 .96807 614.86 -71.821)" width="744.09448" height="1052.3622" fill="#006aff" stroke="#006aff" xlink:href="#a"/>
  <use transform="matrix(.61862 -.78569 .78569 .61862 -14.968 434.27)" width="744.09448" height="1052.3622" fill="#c4ff00" stroke="#c4ff00" xlink:href="#a"/>
  <use transform="matrix(.8143 .58044 -.58044 .8143 928.05 145.41)" width="744.09448" height="1052.3622" fill="#1400ff" stroke="#1400ff" xlink:href="#a"/>
  <use transform="matrix(.99999 .0045594 -.0045594 .99999 429.51 171.95)" width="744.09448" height="1052.3622" fill="#00fff3" stroke="#00fff3" xlink:href="#a"/>
  <use transform="matrix(.42542 .905 -.905 .42542 1208 436.29)" width="744.09448" height="1052.3622" fill="#ff004c" stroke="#ff004c" xlink:href="#a"/>
  </g>
</svg>